
<svg width="30px" height="30px" viewBox="0 0 30 30" version="1.1" xmlns="http://www.w3.org/2000/svg" xmlns:xlink="http://www.w3.org/1999/xlink"><g id="Page-1" stroke="none" stroke-width="1" fill="none" fill-rule="evenodd"><g id="Wireframe_Search-Bar_no-text-Copy-2" transform="translate(-966.000000,-340.000000)"><g id="icon-magnify-active" transform="translate(966.000000,340.000000)"><circle id="Oval" fill="#666666" cx="15" cy="15" r="15"></circle><g id="Layer_1_1_" transform="translate(6.000000,5.500000)"><path d="M13.25,11.6 C14.1,10.4 14.55,8.95 14.55,7.4 C14.55,3.4 11.3,0.15 7.3,0.15 C3.3,0.15 0,3.4 0,7.4 C0,11.4 3.25,14.65 7.25,14.65 C8.8,14.65 10.25,14.15 11.45,13.35 L16.8,18.7 C16.9,18.8 17.05,18.8 17.15,18.7 L18.6,17.25 C18.7,17.15 18.7,17 18.6,16.9 L13.25,11.6 Z" id="path-1" fill="#FFFFFF"></path><circle id="Oval" fill="#666666" cx="7.25" cy="7.4" r="5.1"></circle></g></g></g></g></svg>